<?xml version="1.0" encoding="utf-8"?>
<!-- Generator: Adobe Illustrator 22.0.1, SVG Export Plug-In . SVG Version: 6.00 Build 0)  -->
<svg version="1.1" id="Capa_1" xmlns="http://www.w3.org/2000/svg" xmlns:xlink="http://www.w3.org/1999/xlink" x="0px" y="0px"
	 viewBox="0 0 380.6 47.4" style="enable-background:new 0 0 380.6 47.4;" xml:space="preserve">
<style type="text/css">
	.st0{fill:#332926;}
	.st1{fill:#B7B7B7;}
	.st2{fill:#787578;}
	.st3{fill:#FF0066;}
</style>
<g id="Group_3363" transform="translate(-6837 2528)">
	<path id="Path_15096" class="st0" d="M6887.1-2513.6h0.7c0.5,0,0.2,0,0.7,0.5c0.5,0.2,0.5,0,1,0.2c0.2,0.5,0.2,0.2,1,0.2h-0.5
		c-0.3-0.2-0.7-0.2-1,0l0,0l-0.2-0.2h-0.5l-0.2-0.2l-0.2-0.2h-0.5L6887.1-2513.6z"/>
	<path id="Path_15097" class="st0" d="M6902.7-2497.8L6902.7-2497.8v-0.7h-12.9l1.4,1.2h1c0.3,0.3,0.5,0.8,0.5,1.2v0.2l0,0v1.2
		c0,0.5,0,1.2-0.5,1.4l0,0c-0.1,1.1-0.4,2.2-1,3.1c-0.5,0.2-0.5,0.7-0.2,1.2c-0.7,0.4-1.1,1.1-1.2,1.9v0.5l0.2,0.2l0.2,0.2l0.2,0.2
		h0.5v-0.2l0.2-0.2l0.5-0.2l0.2-0.2v-0.5h0.5l0.2-0.2l0.2-0.2l0.2-0.2l0.2-0.5h0.7l0.2-0.2l0.2-0.2l0.2-0.2l0.5-0.2l0.7-0.2h0.7
		c0-0.7,0.2-0.5,0.7-0.7c1.2-0.7,2.1-1.7,2.6-2.9v-0.2l0.2-0.2l0.2-0.2l0.2-0.2l0.2-0.2h1.2l0.2-0.2l0.2-0.2l0.2-0.2
		c0.2-0.5,0.2-1,0.7-1.4l0,0v-0.2l0,0L6902.7-2497.8L6902.7-2497.8z"/>
	<path id="Path_15098" class="st0" d="M6893.1-2511.7v0.2h0.5v-0.2H6893.1z"/>
	<path id="Path_15099" class="st0" d="M6892.4-2511.9c-0.5,0-1,0-1.4,0.2c0-0.2-0.2-0.2-0.5-0.2v-0.5l0,0
		C6891.4-2512.7,6891.9-2511.9,6892.4-2511.9"/>
	<path id="Path_15100" class="st0" d="M6908.7-2497.3c-7.2,21.8-36.9,22.5-44.1,0.2C6872.2-2477.2,6901-2477.4,6908.7-2497.3"/>
	<path id="Path_15101" class="st0" d="M6908.7-2511.2c-3.1-9.8-11.5-16.8-22.1-16.8c-11,0-18.7,6.2-22.1,16.5
		c2.5-6.6,7.9-11.6,14.6-13.7c-0.1,0.1-0.2,0.3-0.2,0.5c-0.2,0.2-0.2,0.5-0.5,0.7c-0.5,0.2-0.7,1.2-1,1.7v0.2l0,0v0.2
		c-0.2,0.7-1,1.2-1.4,1.9l-0.2,0.5l-0.2,0.5v0.7l-0.2-0.2l0,0c0.4,0.9,0.6,1.9,0.5,2.9l0,0l0.2,0.2v1.4l0,0c0.5-0.7-0.5-2.2-0.2-3.1
		h0.2c0,1.4,1,2.6,1.7,3.8l0,0l-0.2,0.2v0.2h0.2l-0.2,0.5h1.2l0.2,0.2l0.7,0.7h4.8c0.2-0.7,0.2-1.2,0.7-1.7h-1l-0.5,1
		c-0.2,0.5-1.2,0.5-1.4,0.5c-0.5,0-0.2,0-0.5-0.2c-0.2-0.2-0.2-0.5-0.5-0.7c-1.2-1.9,0.5-4.6,2.4-3.6c1-0.7,1.2,0,2.2-0.2h0.7
		l0.2,0.2v0.7l0.2,0.5h0.2l0.2,0.2l0.2-0.5v-0.5l-0.2-0.5l-0.2-0.5v-0.5l0.2-0.2c0.5-0.2,1.4-0.7,1.4-1.2l0.2-0.2l0.2-0.2l0.2-0.5
		v-0.5l0,0l0.2-0.2l0.2-0.2v-0.7h1.2l0.2-0.2h-0.7l-0.2-0.2h-0.2l-0.2-0.2v-0.7l0.2-0.2h1.2l0.2-0.2l0.2-0.2
		c-0.8-0.4-1.6-0.9-2.4-1.4l-0.2,0.2h-1l1.2,0.2v-0.2c-0.7-0.7-1,0-1.4-0.5v1h0.2l0.2,0.2h-0.5l-0.2,0.2v1h-0.7
		c-0.2-0.7,0.2-0.7-0.5-1.2c-0.5-0.2-1.4,0-1.9-0.5v-0.5l0.2-0.2l0.2-0.2l0.2-0.2l0.2-0.2l0.2-0.2l0.2-0.2c1.2-0.6,2.5-0.8,3.8-0.5
		l-0.2-0.2C6898.1-2524.9,6905.6-2519.8,6908.7-2511.2L6908.7-2511.2z"/>
	<path id="Path_15102" class="st0" d="M6846.8-2509.3h-3.8l0.5,0.7v5l-0.2,0.2l-0.2,0.2c-0.2,0.5-1,0.5-1.4,0.5h-1l-0.2-0.2
		l-0.2-0.2l-0.2-0.2l-0.2-0.2v-5l0.5-0.7h-3.1l0.5,0.7c0.2,4.8-1.4,8.2,4.3,8.2c6,0,3.8-3.4,4.3-8.2L6846.8-2509.3z"/>
	<path id="Path_15103" class="st0" d="M6859.3-2509.3h-3.1l0.7,0.7v4.6l-4.6-5.3h-2.6l0.5,0.7v7.4l-0.5,0.5h3.1l-0.7-0.5v-4.6l4.8,5
		h1.9v-7.9L6859.3-2509.3z"/>
	<path id="Path_15104" class="st0" d="M6866.3-2500.7l-0.5-0.5v-7.4l0.5-0.7h-3.6l0.7,0.7v7.4l-0.7,0.5H6866.3z"/>
	<path id="Path_15105" class="st0" d="M6878.5-2509.3h-3.1l0.5,0.7l-2.2,4.8l-2.2-4.8l0.7-0.7h-3.6l3.8,8.6h1.9L6878.5-2509.3z"/>
	<path id="Path_15106" class="st0" d="M6888.8-2500.7v-2.2l-0.7,0.5h-4.6v-1.7h2.9l0.7,0.5v-2.6l-0.7,0.5h-2.9v-1.7h4.6l0.7,0.5
		v-2.4h-8.2l0.5,0.7v7.4l-0.5,0.5H6888.8z"/>
	<path id="Path_15107" class="st0" d="M6895-2505.2L6895-2505.2v-2.2h2.6c0.5,0.2,0.5,0.5,0.5,1
		C6897.9-2505,6896-2505.2,6895-2505.2L6895-2505.2z M6901-2500.7l-2.4-3.4c1.2-0.3,2-1.4,1.9-2.6v-0.5l-0.2-0.5l-0.2-0.5l-0.2-0.5
		h-0.5l-0.5-0.2l-0.7-0.2h-6l0.5,0.7v7.4l-0.5,0.7h3.6l-0.5-0.7v-2.4h1.2l1.7,2.4l-0.5,0.7L6901-2500.7L6901-2500.7z"/>
	<path id="Path_15108" class="st0" d="M6912.1-2503.1c0-1.9-2.2-2.4-3.6-2.9c-0.5,0-2.4-0.7-1.4-1.4c1-0.5,3.6,0.5,4.6,0.7v-2.6
		l-0.7,0.5c-1.9-0.7-4.3-1-6,0.2c-0.5,0.4-0.7,1-0.7,1.7c0,1.7,1.4,2.4,2.6,2.9l0.5,0.2h1l0.5,0.2h0.2l0.2,0.2l0.2,0.2v0.2
		c0,0.5-0.7,0.7-1,0.7c-1.4,0-2.8-0.4-4.1-1.2v3.1l0.7-0.7C6907-2500.2,6911.8-2499.5,6912.1-2503.1L6912.1-2503.1z"/>
	<path id="Path_15109" class="st0" d="M6917.8-2503.5L6917.8-2503.5l1.4-3.1l1.4,3.1H6917.8z M6924.8-2500.7l-4.3-8.6h-2.9l0.2,0.7
		l-3.8,7.9h3.1l-0.5-0.7l0.5-1h4.1l0.5,1l-0.5,0.7H6924.8z"/>
	<path id="Path_15110" class="st0" d="M6935.1-2500.7v-2.2l-0.7,0.5h-4.1v-6.2l0.5-0.7h-3.6l0.5,0.7v7.4l-0.5,0.5H6935.1z"/>
	<path id="Path_15111" class="st0" d="M6934.4-2508.3L6934.4-2508.3l-0.2-0.2h-0.5l-0.2,0.2l-0.2,0.2v0.5l0.2,0.2l0.2,0.2h0.7v-0.5
		h-1l-0.2-0.2C6933.4-2508.6,6933.9-2508.6,6934.4-2508.3z"/>
	<path id="Path_15112" class="st0" d="M6932.7-2507.9L6932.7-2507.9c0-0.6,0.5-1.1,1.1-1.1c0.6,0,1.1,0.5,1.1,1.1s-0.5,1.1-1.1,1.1
		C6933.2-2506.8,6932.7-2507.3,6932.7-2507.9 M6932.7-2507.9c0,1.4,2.4,1.7,2.4,0C6934.8-2509.5,6932.7-2509.5,6932.7-2507.9"/>
</g>
<g id="Group_3366" transform="translate(-7797 735)">
	<path id="Path_10629" class="st1" d="M8170.6-710.8c0-3.3,1.8-6.3,4.6-8c-1.8-2.6-4.7-4.1-7.8-4.2c-3.2-0.4-6.5,1.9-8,1.9
		c-1.7,0-4.2-1.9-7.1-1.9c-3.7,0.1-7,2.1-8.8,5.3c-3.8,6.5-1,16,2.7,21.4c1.7,2.7,3.8,5.5,6.7,5.3c2.7-0.2,3.6-1.7,6.9-1.7
		s4.2,1.7,7.1,1.7c2.9,0,4.8-2.7,6.5-5.2c1.3-1.8,2.3-3.8,2.9-5.9C8176.2-702.2,8170.6-704.5,8170.6-710.8"/>
	<path id="Path_10630" class="st1" d="M8165.3-726.4c1.3-1.9,2.5-4.4,2.1-6.9c-2.1,0-4.8,1.5-6.3,3.2c-1.1,1.5-2.5,4-2.1,6.5
		C8161.4-723.5,8163.7-724.6,8165.3-726.4"/>
</g>
<g id="Capa_2_1_">
	<g id="Capa_1-2">
		<rect x="137.9" y="22" class="st2" width="6.2" height="6.2"/>
		<rect x="155.9" y="22" class="st2" width="6.2" height="6.2"/>
		<rect x="174.7" y="22" class="st2" width="6.2" height="6.2"/>
		<rect x="193.1" y="22" class="st2" width="6.2" height="6.2"/>
		<path class="st2" d="M230.6,9.8c-0.5,0-1,0.1-1.5,0.3c-0.4,0.2-0.8,0.5-1.1,0.9c-0.2,0.3-0.4,0.6-0.6,1c-0.1,0.5-0.2,0.9-0.2,1.4
			c-0.1,0.9-0.1,1.8,0,2.7V32c0,1.1,0,2.2,0.2,3.3c0.1,0.6,0.3,1.2,0.7,1.7c0.6,0.8,1.6,1.2,2.6,1.3v0.5H220v-0.5
			c0.5,0,1.1-0.1,1.6-0.4c0.4-0.2,0.8-0.5,1.1-0.9c0.4-0.5,0.6-1.1,0.7-1.8c0.1-1.1,0.2-2.2,0.2-3.3V12.7L215,38.8h-0.3l-8.4-25.7
			V32c0,1.1,0,2.2,0.2,3.3c0.1,0.6,0.3,1.2,0.7,1.8c0.3,0.4,0.6,0.7,1.1,0.9c0.5,0.2,1,0.3,1.5,0.4v0.5h-7.6v-0.5
			c0.5,0,1-0.1,1.5-0.4c0.4-0.2,0.8-0.5,1.1-0.9c0.4-0.5,0.6-1.1,0.7-1.8c0.2-1.1,0.2-2.2,0.2-3.3V16.1c0-0.7,0-1.3,0-1.9
			c0-0.8-0.1-1.6-0.4-2.3c-0.2-0.6-0.6-1.1-1.1-1.5c-0.6-0.4-1.3-0.6-2-0.6V9.4h7.2l7.2,23.1l7.4-23.1h6.8V9.8z"/>
		<path class="st2" d="M230.6,9.8V9.1c-0.6,0-1.2,0.2-1.8,0.4c-0.5,0.3-1,0.6-1.3,1.1l0.6,0.4l-0.6-0.4c-0.3,0.4-0.5,0.8-0.7,1.2
			c-0.2,0.5-0.2,1-0.3,1.6h0.7h-0.7c0,0.9,0,1.8,0,2.8V32c0,1.1,0,2.3,0.2,3.4c0.1,0.7,0.4,1.5,0.9,2.1c0.8,0.9,1.9,1.5,3.1,1.5
			v-0.7H230v0.5h0.7v-0.7H220v0.7h0.7v-0.5H220V39c0.6,0,1.2-0.2,1.8-0.4c0.5-0.3,1-0.6,1.3-1.1l0,0c0.4-0.6,0.7-1.3,0.9-2.1
			c0.1-1.1,0.2-2.3,0.2-3.4V12.7l-1.2-0.2l-8.5,26.1l0.7,0.2v-0.7h-0.4v0.7l0.7-0.2l-8.5-25.7l-1.3,0.2V32c0,1.1,0,2.3,0.2,3.4
			c0.1,0.7,0.4,1.4,0.9,2.1c0.3,0.5,0.8,0.9,1.3,1.1c0.6,0.2,1.2,0.4,1.8,0.4v-0.7H209v0.5h0.7v-0.7h-7.6v0.7h0.7v-0.5h-0.7V39
			c0.6,0,1.2-0.2,1.8-0.4c0.6-0.3,1.1-0.7,1.4-1.1c0.4-0.6,0.7-1.3,0.8-2.1c0.2-1.1,0.2-2.3,0.2-3.4V16.1c0-0.7,0-1.3,0-1.9
			c0-0.9-0.2-1.7-0.4-2.6c-0.3-0.7-0.7-1.4-1.4-1.8c-0.7-0.4-1.5-0.7-2.3-0.7v0.7h0.7V9.4h-0.9v0.7h6.7l7.7,24.7l7.9-24.7h6.3V9.4
			h-0.7v0.5H230.6V9.1V9.8h0.7V8.7h-8l-6.9,21.4l-6.6-21.4h-8.4v1.8h0.7c0.5,0,1.1,0.2,1.6,0.4c0.4,0.3,0.7,0.7,0.9,1.2
			c0.2,0.7,0.3,1.4,0.3,2.1c0,0.6,0,1.2,0,1.8v16c0,1.1,0,2.1-0.2,3.2c-0.1,0.5-0.3,1-0.6,1.5c-0.2,0.3-0.5,0.5-0.8,0.7
			c-0.4,0.2-0.8,0.3-1.3,0.3h-0.7v1.8h9v-1.8h-0.6c-0.4,0-0.9-0.1-1.3-0.3c-0.3-0.2-0.6-0.4-0.8-0.7c-0.3-0.4-0.5-0.9-0.6-1.5
			c-0.1-1-0.2-2.1-0.2-3.2V17.4l7.2,22.1h1.3l7.4-22.4V32c0,1.1,0,2.1-0.2,3.2c-0.1,0.5-0.3,1-0.6,1.5l0.6,0.4l-0.6-0.4
			c-0.2,0.3-0.5,0.5-0.8,0.7c-0.4,0.2-0.8,0.3-1.3,0.3h-0.7v1.8h12v-1.8h-0.6c-0.8,0-1.5-0.4-2.1-1c-0.3-0.4-0.5-0.9-0.6-1.4
			c-0.1-1.1-0.2-2.1-0.2-3.2V16.1c-0.1-0.9-0.1-1.7,0-2.6l0,0c0-0.4,0.1-0.8,0.2-1.2c0.1-0.3,0.4-0.6,0.6-0.8l0,0
			c0.2-0.3,0.4-0.5,0.6-0.7c0.4-0.2,0.8-0.3,1.3-0.3h0.6V9.8H230.6z"/>
		<path class="st2" d="M235.4,28.4c-0.1,2.4,0.4,4.7,1.5,6.9c1.1,2.1,2.4,3.2,4,3.2c0.7,0,1.4-0.3,2-0.7c0.7-0.5,1.3-1.2,1.6-2
			c0.5-1,1-2.1,1.2-3.3c0.3-1.3,0.4-2.5,0.4-3.8c0-1.3-0.2-2.6-0.5-3.9c-0.3-1.2-0.7-2.3-1.3-3.3c-0.6-1.6-2.1-2.7-3.8-2.8
			c-1.4,0-2.6,0.9-3.7,2.8C235.8,23.6,235.3,26,235.4,28.4 M232,28.7c0-2.4,0.8-4.8,2.3-6.8c2.3-3.6,7-4.7,10.6-2.4
			c1,0.6,1.8,1.4,2.4,2.4c1.5,2,2.3,4.3,2.3,6.8c0,2.4-0.7,4.7-2.1,6.7c-2.4,3.7-7.2,4.7-10.9,2.3c-0.9-0.6-1.7-1.4-2.3-2.3
			C232.7,33.4,232,31.1,232,28.7"/>
		<path class="st2" d="M235.4,28.4h-0.7c-0.1,2.5,0.5,5,1.6,7.2c0.5,1,1.2,1.9,2.1,2.6c0.8,0.6,1.7,1,2.7,1c0.9,0,1.7-0.3,2.4-0.9
			c0.8-0.6,1.4-1.3,1.9-2.2c0.5-1.1,0.9-2.4,1.1-3.6c0.3-1.3,0.5-2.7,0.5-4c0-1.4-0.2-2.7-0.5-4c-0.3-1.2-0.8-2.4-1.4-3.5
			c-0.8-1.7-2.5-2.8-4.4-2.9c-1.9,0.2-3.6,1.4-4.3,3.2c-1.1,2.2-1.7,4.7-1.6,7.2h1.6c-0.1-2.3,0.3-4.5,1.3-6.5c1-1.8,2-2.4,2.9-2.4
			s2.1,0.6,2.9,2.3c0.5,1,0.9,2.1,1.2,3.2c0.3,1.2,0.4,2.4,0.4,3.7c0.1,1.2,0,2.5-0.2,3.7c-0.2,1-0.6,2-1.1,2.9
			c-0.3,0.7-0.8,1.2-1.4,1.7c-0.4,0.4-0.9,0.6-1.5,0.6c-0.6,0-1.2-0.2-1.7-0.6c-0.7-0.5-1.2-1.2-1.6-2c-1-2-1.5-4.2-1.4-6.4H235.4z
			 M232,28.7h0.8c0-2.3,0.7-4.5,2.1-6.3c2-3.2,6.3-4.2,9.5-2.2c0.9,0.6,1.6,1.3,2.2,2.2c1.4,1.8,2.1,4,2.1,6.3c0,2.2-0.7,4.4-2,6.2
			c-2.1,3.3-6.5,4.3-9.8,2.2c-0.9-0.6-1.6-1.3-2.2-2.2c-0.7-0.9-1.2-1.9-1.5-2.9c-0.4-1.1-0.5-2.2-0.5-3.3h-1.6
			c0,1.2,0.2,2.5,0.6,3.7c0.4,1.2,0.9,2.3,1.7,3.4c2.7,4,8.1,5.2,12.2,2.5c1-0.6,1.8-1.5,2.5-2.5c1.5-2.1,2.3-4.6,2.3-7.1
			c0-2.6-0.8-5.2-2.4-7.3c-2.5-3.9-7.8-5.1-11.7-2.6c-1,0.7-1.9,1.5-2.6,2.6c-1.6,2.1-2.5,4.6-2.4,7.2L232,28.7z"/>
		<path class="st2" d="M256.4,29.3c0,1.4,0.1,2.8,0.2,4.2c0.1,0.9,0.3,1.9,0.6,2.8c0.3,0.6,0.7,1.2,1.3,1.6c0.6,0.4,1.2,0.6,1.9,0.6
			c1.6-0.1,3-1,3.7-2.5c1.1-1.9,1.6-4.1,1.5-6.2c0-1.3-0.2-2.5-0.5-3.8c-0.3-1.1-0.7-2-1.4-2.9c-0.4-0.6-0.9-1.2-1.6-1.6
			c-0.5-0.3-1.1-0.5-1.7-0.6c-0.7,0-1.5,0.3-2,0.8c-0.6,0.5-1.1,1.2-1.3,2c-0.6,1.9-0.8,3.9-0.7,5.9 M256.4,23.1
			c0.5-0.7,1-1.3,1.6-1.8c1-0.7,2.2-1,3.4-1c1.8,0,3.6,0.7,4.9,2.1c1.8,1.9,2.8,4.5,2.6,7.1c0.2,2.6-0.7,5.2-2.5,7.2
			c-1.4,1.5-3.5,2.3-5.5,2.3c-1,0-2-0.2-2.9-0.5l-1.1-0.5c-0.2-0.1-0.5-0.2-0.8-0.2c-0.6,0-1.2,0.6-1.7,1.8h-0.8V14.6
			c0.1-1.2-0.1-2.3-0.7-3.4c-0.5-0.7-1.4-1.1-2.2-1V9.6l5.9-0.9L256.4,23.1z"/>
		<path class="st2" d="M256.4,29.3h-0.8c0,1.4,0.1,2.8,0.2,4.3c0.1,1,0.3,2,0.6,2.9c0.3,0.8,0.9,1.5,1.6,2c0.7,0.5,1.5,0.7,2.3,0.7
			c1.9-0.1,3.6-1.2,4.4-2.9c1.1-2,1.7-4.3,1.6-6.6c0-1.3-0.2-2.7-0.5-4c-0.3-1.1-0.8-2.2-1.5-3.1l-0.6,0.4l0.6-0.4
			c-0.5-0.7-1.1-1.3-1.8-1.8c-0.6-0.4-1.4-0.6-2.1-0.6c-0.9,0-1.8,0.3-2.5,0.9c-0.7,0.6-1.3,1.4-1.6,2.3c-0.6,2-0.8,4-0.7,6h1.5
			c-0.1-1.8,0.1-3.7,0.6-5.5c0.2-0.6,0.6-1.2,1.1-1.6c0.4-0.4,1-0.6,1.6-0.6c0.5,0,0.9,0.1,1.3,0.4c0.5,0.4,1,0.8,1.3,1.4l0,0
			c0.6,0.9,1,1.9,1.3,2.9c0.3,1.2,0.4,2.4,0.4,3.6c0.1,2-0.4,4.1-1.3,5.9c-0.6,1.2-1.8,2-3.1,2.1c-0.5,0-1.1-0.2-1.5-0.5
			c-0.5-0.3-0.8-0.8-1-1.3c-0.3-0.8-0.4-1.7-0.5-2.6c-0.2-1.4-0.2-2.7-0.2-4.1L256.4,29.3z M256.4,22.9l0.6,0.4
			c0.4-0.5,0.8-1,1.3-1.4l-0.3-0.6l0.4,0.6c0.9-0.6,1.9-0.9,2.9-0.9c1.7,0,3.2,0.6,4.4,1.8c1.7,1.8,2.5,4.1,2.4,6.6
			c0.2,2.5-0.7,4.9-2.3,6.7c-1.3,1.4-3.1,2.2-5,2.1c-0.9,0-1.9-0.1-2.7-0.5l-0.3,0.7l0.3-0.7l-1.1-0.5l0,0c-0.3-0.2-0.7-0.3-1.1-0.3
			c-0.5,0-1.1,0.3-1.4,0.7c-0.4,0.5-0.7,1-0.9,1.6l0.7,0.3v-0.7l0,0V14.6c0.1-1.3-0.2-2.6-0.8-3.8c-0.7-0.9-1.8-1.5-2.9-1.3v0.7h0.7
			V9.6h-0.7v0.7l5-0.8v15.6l1.3-1.9L256.4,22.9h0.7v-15L250,9v1.8h0.7c0.6-0.1,1.2,0.2,1.6,0.7c0.4,0.9,0.6,1.9,0.6,2.9v25.7h2
			l0.2-0.5c0.2-0.4,0.4-0.8,0.6-1.1l0.4-0.2h0.5l0.3-0.7l-0.3,0.7l1,0.5l0,0c1,0.4,2.2,0.6,3.3,0.6c2.2,0.1,4.4-0.7,6-2.2
			c2-2.1,3-4.9,2.9-7.8c0.1-2.8-0.9-5.6-2.9-7.6c-1.5-1.4-3.5-2.2-5.5-2.1c-1.4,0-2.7,0.4-3.9,1.2l0,0c-0.6,0.5-1.2,1.1-1.6,1.8
			l0.6,0.4l0,0L256.4,22.9z"/>
		<path class="st2" d="M276.4,12.6c-0.5,0-0.9-0.2-1.2-0.5c-0.3-0.3-0.5-0.8-0.5-1.3c0-0.5,0.2-1,0.5-1.3c0.3-0.4,0.7-0.6,1.2-0.6
			c0.5,0,0.9,0.2,1.2,0.6c0.3,0.4,0.5,0.8,0.5,1.3c0,0.5-0.1,1-0.5,1.3C277.4,12.5,276.9,12.7,276.4,12.6 M272.5,21l5.4-0.8V34
			c-0.1,0.7-0.1,1.4,0,2.1c0.1,0.4,0.3,0.8,0.6,1.1c0.5,0.5,1.2,0.8,1.9,0.9v0.4h-8.2v-0.4c0.6-0.1,1.1-0.2,1.6-0.5
			c0.4-0.3,0.6-0.6,0.8-1.1c0.2-0.5,0.3-1,0.3-1.5c0-0.6,0-1.6,0-2.9v-5c0-1.5,0-2.5,0-2.9c0-0.6-0.2-1.1-0.4-1.6
			c-0.2-0.3-0.5-0.6-0.8-0.9c-0.4-0.2-0.8-0.3-1.3-0.3V21z"/>
		<path class="st2" d="M276.4,12.6v-0.7c-0.3,0-0.5-0.1-0.6-0.3c-0.2-0.2-0.3-0.5-0.3-0.8c-0.1-0.3,0-0.6,0.2-0.8
			c0.1-0.2,0.4-0.3,0.6-0.3c0.3,0,0.5,0.1,0.7,0.3c0.2,0.2,0.3,0.5,0.3,0.8c0,0.3-0.1,0.6-0.3,0.8c-0.2,0.2-0.4,0.3-0.7,0.3v1.5
			c0.7,0,1.3-0.3,1.8-0.8c0.5-0.5,0.8-1.1,0.8-1.8c0-0.7-0.2-1.3-0.7-1.8c-0.4-0.5-1.1-0.8-1.8-0.8c-0.7,0-1.3,0.3-1.8,0.8
			c-0.4,0.5-0.7,1.1-0.7,1.8c0,0.7,0.2,1.3,0.7,1.8c0.5,0.5,1.1,0.8,1.8,0.8V12.6z M272.5,21v0.7l4.6-0.6v13c0,0.7,0,1.5,0.2,2.2
			c0.1,0.6,0.4,1.1,0.8,1.5l0.6-0.6l-0.6,0.5c0.7,0.6,1.5,1,2.3,1.1v-0.7h-0.8v0.4h0.8v-0.7h-8.1v0.7h0.8v-0.4h-0.8v0.7
			c0.7-0.1,1.3-0.3,1.9-0.6c0.5-0.3,0.9-0.8,1.1-1.4l-0.7-0.3l0.7,0.3c0.2-0.5,0.3-1.1,0.4-1.6c0-0.7,0-1.6,0-2.9v-5.2
			c0-1.5,0-2.5,0-3.1c-0.1-0.6-0.2-1.2-0.5-1.7l-0.5,0.3l0.6-0.4c-0.2-0.5-0.6-0.9-1.1-1.1c-0.5-0.2-1-0.4-1.5-0.4v0.8h0.7V21h-0.7
			v0.7V21H272v1.1h0.7c0.3,0,0.7,0.1,1,0.2c0.2,0.1,0.4,0.3,0.5,0.6l0,0c0.2,0.3,0.3,0.7,0.3,1.1c0,0.5,0,1.6,0,2.9v5.4
			c0,1.2,0,2.1,0,2.8c0,0.4-0.1,0.9-0.2,1.3l0,0c-0.1,0.3-0.3,0.5-0.5,0.7c-0.4,0.2-0.9,0.3-1.3,0.4h-0.6v1.8h9.8v-1.8h-0.6
			c-0.6-0.1-1.1-0.3-1.5-0.6l0,0c-0.2-0.2-0.3-0.5-0.4-0.8c-0.1-0.6-0.1-1.3,0-1.9V19.5l-6.9,1v0.6L272.5,21z"/>
		<path class="st2" d="M283,9.5l5.4-0.8V34c0,0.7,0,1.4,0.1,2.1c0.1,0.4,0.3,0.8,0.6,1.1c0.5,0.5,1.2,0.8,1.9,0.9v0.4h-8.2v-0.4
			c0.6-0.1,1.1-0.2,1.6-0.5c0.4-0.3,0.6-0.6,0.8-1.1c0.2-0.5,0.3-1,0.3-1.5c0-0.6,0-1.6,0-2.9V15.6c0-1.4,0-2.5,0-2.9
			c0-0.5-0.2-1-0.4-1.4c-0.1-0.4-0.3-0.7-0.6-1c-0.4-0.2-0.9-0.3-1.3-0.3L283,9.5z"/>
		<path class="st2" d="M283,9.5v0.7l4.7-0.6v22.8l0,0V34l0,0c0,0.8,0,1.5,0.2,2.3c0.1,0.6,0.4,1.1,0.8,1.5l0.5-0.5l-0.5,0.5
			c0.6,0.6,1.5,1,2.3,1.1l0.1-0.7h-0.8v0.4h0.7v-0.7h-8.2v0.7h0.7v-0.4h-0.7v0.7c0.7-0.1,1.3-0.3,1.9-0.6c0.5-0.3,0.9-0.8,1.1-1.4
			c0.2-0.5,0.3-1.1,0.4-1.7c0-0.7,0-1.6,0-2.9V15.6c0-1.4,0-2.5,0-3.1c0-0.6-0.2-1.2-0.5-1.8l-0.6,0.4l0.7-0.3
			c-0.2-0.5-0.6-0.9-1.1-1.2c-0.5-0.3-1.1-0.4-1.6-0.4V10h0.8V9.5H283l0.1,0.7L283,9.5h-0.7v1.3h0.7c0.3,0,0.7,0.1,1,0.2
			c0.2,0.1,0.4,0.3,0.5,0.6l0,0c0.2,0.4,0.3,0.7,0.3,1.1c0,0.5,0,1.6,0,2.9v16.6c0,1.2,0,2.2,0,2.8c0,0.4-0.1,0.8-0.2,1.2
			c-0.1,0.3-0.3,0.5-0.5,0.7c-0.4,0.2-0.9,0.3-1.3,0.4h-0.6v1.8h9.8v-1.8h-0.6c-0.6-0.1-1.1-0.3-1.5-0.6l0,0
			c-0.2-0.2-0.3-0.5-0.4-0.8c0-0.6,0-1.3,0-1.9l0,0v-1.7l0,0V7.9l-7.1,1v0.7H283z"/>
		<path class="st2" d="M305,25.5c0-1.2-0.3-2.4-0.7-3.5c-0.3-0.7-0.8-1.3-1.3-1.7c-0.5-0.4-1.2-0.7-1.8-0.7c-1.2,0-2.3,0.6-2.9,1.7
			c-0.8,1.2-1.3,2.7-1.3,4.2H305z M296.8,26.4c0,0.7,0,1.3,0,1.6c0,1.3,0.1,2.6,0.5,3.8c0.3,1.1,0.7,2.2,1.3,3.1
			c0.5,0.8,1.2,1.5,2.1,2c0.8,0.5,1.7,0.7,2.6,0.7c0.6,0,1.2-0.2,1.7-0.4c0.6-0.2,1.1-0.6,1.5-1.1c0.6-0.8,1-1.6,1.2-2.6l0.4,0.1
			c-0.2,1.5-0.9,3-2.1,4c-1.2,1-2.7,1.4-4.3,1.3c-1.4,0-2.7-0.3-3.9-0.9c-1.2-0.6-2.2-1.5-2.9-2.7c-1.1-1.9-1.6-4.1-1.6-6.2
			c-0.2-2.9,0.9-5.8,2.9-7.9c1.3-1.3,3.1-2.1,5-2.1c1.9,0,3.8,0.9,4.9,2.5c1,1.4,1.4,3,1.4,4.7L296.8,26.4z"/>
		<path class="st2" d="M305,25.5h0.8c0-1.3-0.3-2.7-0.8-3.9c-0.4-0.8-0.9-1.4-1.6-1.9c-0.6-0.5-1.4-0.8-2.3-0.8
			c-1.4,0-2.7,0.8-3.4,2c-0.9,1.3-1.4,2.9-1.5,4.5v0.9h9.7v-0.8L305,25.5v-0.9h-8.1v0.9h0.8c0.1-1.4,0.5-2.7,1.3-3.8
			c0.4-0.8,1.3-1.3,2.2-1.3c0.5,0,1,0.2,1.3,0.5c0.5,0.4,0.9,0.9,1.1,1.4c0.4,1,0.6,2.1,0.6,3.2H305L305,25.5z M296.8,26.4h-0.8
			c0,0.8,0,1.3,0,1.6c0,1.4,0.2,2.7,0.5,4c0.3,1.2,0.7,2.3,1.4,3.3c0.6,0.9,1.4,1.7,2.3,2.2c0.9,0.5,1.9,0.8,2.9,0.8
			c0.8,0,1.5-0.2,2.2-0.5c0.7-0.3,1.3-0.8,1.8-1.3l0,0c0.6-0.9,1.1-1.9,1.3-2.9l-0.7-0.2l-0.3,0.7l0.4,0.1l0.3-0.7h-0.8
			c-0.2,1.4-0.8,2.6-1.8,3.5c-1.1,0.8-2.4,1.3-3.8,1.2c-1.3,0-2.6-0.4-3.7-1.1c-1-0.6-1.9-1.4-2.5-2.4c-1-1.8-1.5-3.8-1.5-5.9
			c-0.2-2.7,0.8-5.4,2.8-7.4c1.2-1.2,2.8-1.9,4.5-1.9c1.7,0,3.3,0.8,4.3,2.2c0.9,1.3,1.3,2.8,1.2,4.3h0.8v-0.6h-11.5v0.7h0.8V27
			h11.7v-0.8c0.1-1.8-0.5-3.6-1.5-5.2c-0.6-0.9-1.4-1.6-2.4-2.1c-1-0.5-2-0.7-3.1-0.7c-2.1,0-4.1,0.8-5.5,2.3
			c-2.2,2.3-3.4,5.3-3.3,8.5c-0.1,2.3,0.5,4.6,1.7,6.7c0.7,1.2,1.7,2.2,2.9,2.9c1.3,0.7,2.8,1,4.3,1c1.7,0.1,3.4-0.5,4.7-1.5
			c1.3-1.2,2.1-2.7,2.3-4.5V33l-1-0.4l-0.8-0.3l-0.2,0.8c-0.2,0.8-0.5,1.6-1,2.3l0,0c-0.3,0.4-0.7,0.7-1.2,0.9
			c-0.5,0.2-1.1,0.4-1.6,0.4c-0.8,0-1.5-0.2-2.2-0.6c-0.7-0.5-1.3-1.1-1.8-1.8c-0.5-0.9-1-1.9-1.2-2.9c-0.3-1.2-0.4-2.4-0.4-3.7
			c0-0.3,0-0.8,0-1.6h-0.7l0,0L296.8,26.4z"/>
		<path class="st3" d="M152.8,36.4h4.7v2.4h-14.2v-2.4h4.7v-27c0,0-7.9,0-7.9,10.2h-1.6V7.9h23.7v11.7h-1.6c0,0-0.4-10.2-7.9-10.2
			V36.4z"/>
	</g>
</g>
</svg>
